<?xml version="1.0" ?>
<!DOCTYPE svg  PUBLIC '-//W3C//DTD SVG 1.1//EN'  'http://www.w3.org/Graphics/SVG/1.1/DTD/svg11.dtd'>
<!-- Uploaded to: SVG Repo, www.svgrepo.com, Generator: SVG Repo Mixer Tools -->
<svg fill="#000000" width="800px" height="800px" viewBox="0 0 512 512" version="1.1" xml:space="preserve" xmlns="http://www.w3.org/2000/svg" xmlns:xlink="http://www.w3.org/1999/xlink">
<g id="_x31_4_x2C__syringe_x2C__injection_x2C__vaccine_x2C__needle_x2C__shot">
<g>
<path d="M177.375,298.771c-1.527-1.524-1.527-4.006,0-5.532    c1.523-1.527,4.004-1.527,5.531,0l53.011,53.011l15.136-15.168l-69.927-69.929l-47.318,47.318l22.513,22.514    c1.527,1.527,1.527,4.008,0,5.535L67.439,425.4l19.397,19.365l88.881-88.881c1.495-1.527,4.008-1.527,5.503,0l22.545,22.515    l26.619-26.618L177.375,298.771z M300.853,141.393l-15.961,15.994l42.739,42.74c1.494,1.527,1.494,4.006,0,5.533    c-1.527,1.527-4.008,1.527-5.535,0l-42.739-42.738l-13.515,13.515l20.576,20.574c1.523,1.526,1.523,4.007,0,5.533    c-1.526,1.526-4.008,1.526-5.534,0l-20.576-20.575l-13.515,13.516l42.742,42.738c1.523,1.527,1.523,4.008,0,5.535    c-1.526,1.493-4.008,1.493-5.534,0l-42.739-42.74l-13.515,13.515l20.604,20.574c1.495,1.526,1.495,4.008,0,5.534    c-1.526,1.494-4.004,1.494-5.531,0l-20.608-20.607l-13.483,13.516l42.739,42.74c1.495,1.526,1.495,4.006,0,5.533    c-1.527,1.525-4.004,1.525-5.531,0l-42.742-42.739l-16.537,16.534l69.93,69.93l114.227-114.194    c8.079-8.108,11.895-16.949,13.326-25.154c2.828-16.026-2.99-29.606-3.468-30.687c-0.667-1.527-0.284-3.243,0.797-4.326    l15.39-15.422c2.801-2.799,4.229-6.52,4.229-10.208c-0.031-2.45-0.635-4.897-1.874-7.091l85.639-85.639    c1.526-1.527,1.526-4.006,0-5.533c-1.526-1.526-4.008-1.526-5.534,0l-85.67,85.669c-2.162-1.207-4.58-1.813-6.995-1.813    c-3.692,0-7.412,1.4-10.21,4.199l-15.393,15.391c-1.238,1.272-3.18,1.495-4.674,0.667c-9.188-4.197-19.461-5.404-29.287-3.657    C317.484,129.436,308.265,134.014,300.853,141.393z M26.003,427.147l16.312-16.089l58.356,58.639l-15.997,16.154L26.003,427.147z" style="fill-rule:evenodd;clip-rule:evenodd;"/>
</g>
</g>
<g id="Layer_1"/>
</svg>